<svg width="164" height="48" viewBox="0 0 164 48" fill="none" xmlns="http://www.w3.org/2000/svg">
<g clip-path="url(#clip0_1_45)">
<path d="M157.926 48.0476H6.07408C2.67259 48.0476 0 45.2931 0 42.0595V6.13095C0 2.77761 2.79407 0.142853 6.07408 0.142853H157.926C161.327 0.142853 164 2.89738 164 6.13095V42.0595C164 45.2931 161.327 48.0476 157.926 48.0476Z" fill="black"/>
<path d="M50.7538 8.31856H53.1532C53.9286 8.31856 54.6059 8.47466 55.1825 8.78938C55.759 9.10409 56.2022 9.5447 56.5144 10.1162C56.8266 10.6852 56.9801 11.3373 56.9801 12.07C56.9801 12.8027 56.824 13.4548 56.5144 14.0238C56.2022 14.5928 55.759 15.0359 55.1825 15.3506C54.6059 15.6653 53.9312 15.8214 53.1532 15.8214H50.7538V8.31604V8.31856ZM53.123 14.7338C53.9765 14.7338 54.6386 14.4971 55.1095 14.0263C55.5803 13.5555 55.8169 12.9034 55.8169 12.0725C55.8169 11.2417 55.5803 10.5896 55.1095 10.1187C54.6386 9.64793 53.9765 9.41126 53.123 9.41126H51.9069V14.7363H53.123V14.7338Z" fill="white"/>
<path d="M58.4784 8.3186H59.6315V15.824H58.4784V8.3186Z" fill="white"/>
<path d="M62.0411 15.4464C61.5451 15.0838 61.2001 14.5727 61.0038 13.9156L62.0939 13.475C62.2047 13.893 62.4061 14.2379 62.6906 14.5022C62.9777 14.7691 63.3226 14.9001 63.728 14.9001C64.1056 14.9001 64.4254 14.8019 64.6872 14.6055C64.9491 14.4091 65.08 14.1397 65.08 13.7973C65.08 13.4826 64.9642 13.2232 64.7351 13.0168C64.5034 12.8103 64.1056 12.6089 63.5391 12.415L63.0683 12.2463C62.5572 12.0651 62.1342 11.8108 61.7943 11.486C61.4544 11.1612 61.2857 10.7307 61.2857 10.1919C61.2857 9.82176 61.3865 9.47935 61.5854 9.16463C61.7843 8.84991 62.0637 8.60317 62.4238 8.41938C62.7838 8.2381 63.1917 8.14746 63.6449 8.14746C64.2944 8.14746 64.8156 8.30608 65.2059 8.62331C65.5961 8.94055 65.863 9.29807 66.0015 9.69839L64.9642 10.139C64.8937 9.88722 64.7476 9.6707 64.5236 9.48942C64.2995 9.30814 64.0099 9.2175 63.6524 9.2175C63.2949 9.2175 63.0205 9.30814 62.7813 9.48942C62.5446 9.6707 62.4263 9.90233 62.4263 10.1818C62.4263 10.4411 62.532 10.6551 62.746 10.8263C62.96 10.9975 63.2899 11.1612 63.7355 11.3148L64.2189 11.4835C64.8609 11.7076 65.3569 11.9971 65.7069 12.3546C66.0569 12.7121 66.2306 13.1855 66.2306 13.7797C66.2306 14.2681 66.1072 14.6785 65.858 15.0108C65.6087 15.3432 65.2915 15.5899 64.9037 15.751C64.516 15.9122 64.1182 15.9928 63.7129 15.9928C63.091 15.9928 62.532 15.8115 62.036 15.4489L62.0411 15.4464Z" fill="white"/>
<path d="M67.743 8.3186H70.3212C70.7694 8.3186 71.1797 8.4168 71.5524 8.61318C71.925 8.80956 72.2221 9.08148 72.4437 9.43145C72.6627 9.78141 72.7735 10.1767 72.7735 10.6148C72.7735 11.0529 72.6627 11.4507 72.4437 11.7981C72.2221 12.1481 71.9275 12.42 71.5524 12.6164C71.1772 12.8128 70.7668 12.911 70.3212 12.911H68.8962V15.824H67.743V8.3186ZM70.3539 11.8183C70.7391 11.8183 71.0463 11.6974 71.2805 11.4557C71.5146 11.214 71.6304 10.9345 71.6304 10.6123C71.6304 10.29 71.5146 10.0105 71.2805 9.76882C71.0463 9.52712 70.7366 9.40627 70.3539 9.40627H68.8962V11.8157H70.3539V11.8183Z" fill="white"/>
<path d="M75.6563 15.4666C75.0622 15.1166 74.5964 14.6433 74.2565 14.0466C73.9166 13.4499 73.7479 12.7902 73.7479 12.0702C73.7479 11.3501 73.9166 10.6929 74.2565 10.0937C74.5964 9.49702 75.0622 9.02368 75.6563 8.67372C76.2505 8.32375 76.9102 8.15002 77.6378 8.15002C78.3654 8.15002 79.0226 8.32375 79.6142 8.67372C80.2034 9.02368 80.6692 9.49702 81.0091 10.0937C81.349 10.6904 81.5177 11.3501 81.5177 12.0702C81.5177 12.7902 81.349 13.4474 81.0091 14.0466C80.6692 14.6433 80.2059 15.1166 79.6142 15.4666C79.0226 15.8166 78.3654 15.9903 77.6378 15.9903C76.9102 15.9903 76.2505 15.8166 75.6563 15.4666ZM79.015 14.5401C79.4305 14.2984 79.7603 13.9635 79.9995 13.533C80.2412 13.1024 80.362 12.6165 80.362 12.0702C80.362 11.5238 80.2412 11.0379 79.9995 10.6073C79.7578 10.1768 79.4305 9.84195 79.015 9.60025C78.5996 9.35854 78.1389 9.23769 77.6378 9.23769C77.1368 9.23769 76.676 9.35854 76.2606 9.60025C75.8452 9.84195 75.5154 10.1768 75.2762 10.6073C75.0345 11.0379 74.9136 11.5238 74.9136 12.0702C74.9136 12.6165 75.0345 13.1024 75.2762 13.533C75.5179 13.9635 75.8452 14.2984 76.2606 14.5401C76.676 14.7818 77.1368 14.9026 77.6378 14.9026C78.1389 14.9026 78.5996 14.7818 79.015 14.5401Z" fill="white"/>
<path d="M83.0038 8.3186H84.3659L87.7623 13.8325H87.8252L87.7623 12.3848V8.3186H88.9054V15.824H87.7094L84.1468 10.0282H84.0839L84.1468 11.4759V15.8265H83.0038V8.32112V8.3186Z" fill="white"/>
<path d="M90.8045 8.3186H91.9577V15.824H90.8045V8.3186Z" fill="white"/>
<path d="M93.8426 8.3186H96.6524C97.0502 8.3186 97.4203 8.40672 97.7628 8.58045C98.1052 8.75417 98.3771 8.99336 98.576 9.29801C98.7749 9.60265 98.8756 9.94003 98.8756 10.3101C98.8756 10.6802 98.7824 11.0025 98.5987 11.2795C98.4123 11.5564 98.1681 11.7679 97.8584 11.9139V11.9668C98.2487 12.1003 98.5609 12.3193 98.7925 12.6265C99.0216 12.9336 99.1374 13.2962 99.1374 13.7166C99.1374 14.1371 99.0317 14.4946 98.8177 14.8119C98.6037 15.1291 98.3192 15.3784 97.9591 15.5571C97.5991 15.7359 97.2063 15.824 96.7808 15.824H93.8451V8.3186H93.8426ZM96.5996 11.4733C96.9495 11.4733 97.229 11.3676 97.438 11.1536C97.6469 10.9396 97.7527 10.6954 97.7527 10.4159C97.7527 10.1364 97.6495 9.89471 97.443 9.68826C97.2366 9.4818 96.9697 9.37857 96.6398 9.37857H94.9932V11.4759H96.597L96.5996 11.4733ZM96.7783 14.754C97.1409 14.754 97.4329 14.6432 97.6545 14.4241C97.8735 14.2051 97.9843 13.9407 97.9843 13.6336C97.9843 13.3264 97.871 13.0595 97.6444 12.838C97.4178 12.6139 97.1157 12.5031 96.738 12.5031H94.9983V14.7565H96.7808L96.7783 14.754Z" fill="white"/>
<path d="M100.656 8.3186H101.809V14.7338H105.037V15.824H100.656V8.3186Z" fill="white"/>
<path d="M106.253 8.3186H110.802V9.40879H107.406V11.5262H110.467V12.6164H107.406V14.7338H110.802V15.824H106.253V8.3186Z" fill="white"/>
<path d="M115.193 15.4464C114.697 15.0838 114.352 14.5727 114.156 13.9156L115.246 13.475C115.357 13.893 115.558 14.2379 115.843 14.5022C116.13 14.7691 116.475 14.9001 116.88 14.9001C117.258 14.9001 117.578 14.8019 117.84 14.6055C118.101 14.4091 118.232 14.1397 118.232 13.7973C118.232 13.4826 118.117 13.2232 117.887 13.0168C117.656 12.8103 117.258 12.6089 116.691 12.415L116.221 12.2463C115.71 12.0651 115.287 11.8108 114.947 11.486C114.607 11.1612 114.438 10.7307 114.438 10.1919C114.438 9.82176 114.539 9.47935 114.738 9.16463C114.937 8.84991 115.216 8.60317 115.576 8.41938C115.936 8.2381 116.344 8.14746 116.797 8.14746C117.447 8.14746 117.968 8.30608 118.358 8.62331C118.748 8.94055 119.015 9.29807 119.154 9.69839L118.117 10.139C118.046 9.88722 117.9 9.6707 117.676 9.48942C117.452 9.30814 117.162 9.2175 116.805 9.2175C116.447 9.2175 116.173 9.30814 115.934 9.48942C115.697 9.6707 115.576 9.90233 115.576 10.1818C115.576 10.4411 115.682 10.6551 115.896 10.8263C116.11 10.9975 116.44 11.1612 116.885 11.3148L117.366 11.4835C118.008 11.7076 118.504 11.9971 118.854 12.3546C119.204 12.7121 119.378 13.1855 119.378 13.7797C119.378 14.2681 119.255 14.6785 119.005 15.0108C118.756 15.3432 118.439 15.5899 118.051 15.751C117.663 15.9122 117.266 15.9928 116.86 15.9928C116.238 15.9928 115.679 15.8115 115.183 15.4489L115.193 15.4464Z" fill="white"/>
<path d="M122.074 15.6125C121.644 15.3607 121.312 15.0057 121.077 14.5424C120.843 14.0817 120.727 13.5454 120.727 12.9386V8.31604H121.87V13.0016C121.87 13.5681 122.016 14.0263 122.311 14.3737C122.606 14.7237 123.021 14.8974 123.557 14.8974C124.094 14.8974 124.522 14.7237 124.816 14.3737C125.111 14.0238 125.257 13.5655 125.257 13.0016V8.31604H126.4V12.9386C126.4 13.5404 126.284 14.0716 126.055 14.5324C125.823 14.9931 125.496 15.3506 125.071 15.6074C124.645 15.8617 124.141 15.9901 123.56 15.9901C122.978 15.9901 122.507 15.8642 122.077 15.6125H122.074Z" fill="white"/>
<path d="M128.19 8.3186H130.821C131.275 8.3186 131.685 8.4168 132.052 8.61318C132.42 8.80956 132.71 9.08148 132.924 9.43145C133.138 9.78141 133.243 10.1767 133.243 10.6148C133.243 11.1183 133.08 11.564 132.755 11.9517C132.43 12.3394 132.022 12.5988 131.534 12.7322L131.524 12.7851L133.588 15.7611V15.824H132.256L130.255 12.8782H129.343V15.824H128.19V8.3186ZM130.789 11.8183C131.151 11.8183 131.458 11.7025 131.705 11.4733C131.952 11.2417 132.078 10.9522 132.078 10.6022C132.078 10.2799 131.964 10.0005 131.738 9.75875C131.511 9.51705 131.209 9.3962 130.831 9.3962H129.343V11.8183H130.791H130.789Z" fill="white"/>
<path d="M82.729 26.1602C79.8134 26.1602 77.5053 28.3202 77.5053 31.3202C77.5053 34.2002 79.8134 36.4802 82.729 36.4802C85.6445 36.4802 87.9527 34.3202 87.9527 31.3202C87.9527 28.2002 85.6445 26.1602 82.729 26.1602ZM82.729 34.3202C81.1497 34.3202 79.8134 33.0002 79.8134 31.2002C79.8134 29.4002 81.1497 28.0802 82.729 28.0802C84.3083 28.0802 85.6446 29.2802 85.6446 31.2002C85.6446 33.0002 84.3083 34.3202 82.729 34.3202ZM71.4312 26.1602C68.5157 26.1602 66.2075 28.3202 66.2075 31.3202C66.2075 34.2002 68.5157 36.4802 71.4312 36.4802C74.3468 36.4802 76.6549 34.3202 76.6549 31.3202C76.6549 28.2002 74.3468 26.1602 71.4312 26.1602ZM71.4312 34.3202C69.852 34.3202 68.5157 33.0002 68.5157 31.2002C68.5157 29.4002 69.852 28.0802 71.4312 28.0802C73.0105 28.0802 74.3468 29.2802 74.3468 31.2002C74.3468 33.0002 73.0105 34.3202 71.4312 34.3202ZM57.9468 27.7202V29.8802H63.1705C63.049 31.0802 62.5631 32.0402 61.9557 32.6402C61.2268 33.3602 60.012 34.2002 57.9468 34.2002C54.6668 34.2002 52.2371 31.6802 52.2371 28.4402C52.2371 25.2002 54.7883 22.6802 57.9468 22.6802C59.6475 22.6802 60.9838 23.4002 61.9557 24.2402L63.5349 22.6802C62.1986 21.4802 60.4979 20.5202 58.0683 20.5202C53.6949 20.5202 49.929 24.1202 49.929 28.4402C49.929 32.7602 53.6949 36.3602 58.0683 36.3602C60.4979 36.3602 62.1986 35.6402 63.6564 34.0802C65.1142 32.6402 65.6001 30.6002 65.6001 29.0402C65.6001 28.5602 65.6001 28.0802 65.4786 27.7202H57.9468ZM113.099 29.4002C112.613 28.2002 111.399 26.1602 108.726 26.1602C106.053 26.1602 103.867 28.2002 103.867 31.3202C103.867 34.2002 106.053 36.4802 108.969 36.4802C111.277 36.4802 112.735 35.0402 113.221 34.2002L111.52 33.0002C110.913 33.8402 110.184 34.4402 108.969 34.4402C107.754 34.4402 107.025 33.9602 106.418 32.8802L113.342 30.0002L113.099 29.4002ZM106.053 31.0802C106.053 29.1602 107.633 28.0802 108.726 28.0802C109.576 28.0802 110.427 28.5602 110.67 29.1602L106.053 31.0802ZM100.344 36.0002H102.652V21.0002H100.344V36.0002ZM96.6994 27.2402C96.092 26.6402 95.1201 26.0402 93.9053 26.0402C91.3542 26.0402 88.9245 28.3202 88.9245 31.2002C88.9245 34.0802 91.2327 36.2402 93.9053 36.2402C95.1201 36.2402 96.092 35.6402 96.5779 35.0402H96.6994V35.7602C96.6994 37.6802 95.606 38.7602 93.9053 38.7602C92.569 38.7602 91.5971 37.8002 91.3542 36.9602L89.4105 37.8002C90.0179 39.1202 91.4757 40.8002 94.0268 40.8002C96.6994 40.8002 98.886 39.2402 98.886 35.5202V26.4002H96.6994V27.2402ZM94.0268 34.3202C92.4475 34.3202 91.1112 33.0002 91.1112 31.2002C91.1112 29.4002 92.4475 28.0802 94.0268 28.0802C95.606 28.0802 96.8208 29.4002 96.8208 31.2002C96.8208 33.0002 95.606 34.3202 94.0268 34.3202ZM123.668 21.0002H118.202V36.0002H120.51V30.3602H123.668C126.219 30.3602 128.649 28.5602 128.649 25.6802C128.649 22.8002 126.219 21.0002 123.668 21.0002ZM123.79 28.2002H120.51V23.0402H123.79C125.49 23.0402 126.462 24.4802 126.462 25.5602C126.341 26.8802 125.369 28.2002 123.79 28.2002ZM137.76 26.0402C136.059 26.0402 134.359 26.7602 133.751 28.3202L135.816 29.1602C136.302 28.3202 137.031 28.0802 137.882 28.0802C139.096 28.0802 140.19 28.8002 140.311 30.0002V30.1202C139.947 29.8802 138.975 29.5202 138.003 29.5202C135.816 29.5202 133.63 30.7202 133.63 32.8802C133.63 34.9202 135.452 36.2402 137.396 36.2402C138.975 36.2402 139.704 35.5202 140.311 34.8002H140.433V36.0002H142.619V30.2402C142.376 27.6002 140.311 26.0402 137.76 26.0402ZM137.517 34.3202C136.788 34.3202 135.695 33.9602 135.695 33.0002C135.695 31.8002 137.031 31.4402 138.125 31.4402C139.096 31.4402 139.582 31.6802 140.19 31.9202C139.947 33.3602 138.732 34.3202 137.517 34.3202ZM150.273 26.4002L147.722 32.8802H147.6L144.928 26.4002H142.498L146.507 35.5202L144.199 40.5602H146.507L152.702 26.4002H150.273ZM129.864 36.0002H132.172V21.0002H129.864V36.0002Z" fill="white"/>
<path d="M12.6338 8.99998C12.2694 9.35998 12.0264 9.95998 12.0264 10.68V37.2C12.0264 37.92 12.2694 38.52 12.6338 38.88L12.7553 39L27.819 24.12V24V23.88L12.6338 8.99998Z" fill="url(#paint0_linear_1_45)"/>
<path d="M32.7999 29.1611L27.8191 24.2411V24.0011V23.8811L32.7999 18.9611L32.9214 19.0811L38.874 22.4411C40.5747 23.4011 40.5747 24.9611 38.874 25.9211L32.7999 29.1611Z" fill="url(#paint1_linear_1_45)"/>
<path d="M32.9217 29.0403L27.8194 24.0003L12.6342 39.0003C13.2417 39.6003 14.092 39.6003 15.1854 39.1203L32.9217 29.0403Z" fill="url(#paint2_linear_1_45)"/>
<path d="M32.9217 18.9608L15.1854 9.00076C14.092 8.40076 13.2417 8.52076 12.6342 9.12076L27.8194 24.0008L32.9217 18.9608Z" fill="url(#paint3_linear_1_45)"/>
<path opacity="0.2" d="M32.8004 28.9197L15.1856 38.7597C14.2137 39.3597 13.3634 39.2397 12.756 38.7597L12.6345 38.8797L12.756 38.9997C13.3634 39.4797 14.2137 39.5997 15.1856 38.9997L32.8004 28.9197Z" fill="black"/>
<path opacity="0.12" d="M12.6346 38.7592C12.2701 38.3991 12.1486 37.799 12.1486 37.0789V37.1989C12.1486 37.919 12.3916 38.5191 12.7561 38.8792V38.7592H12.6346Z" fill="black"/>
<path opacity="0.12" d="M38.8744 25.5603L32.8004 28.9203L32.9218 29.0403L38.8744 25.6803C39.7248 25.2003 40.0892 24.6003 40.0892 24.0003C40.0892 24.6003 39.6033 25.0803 38.8744 25.5603Z" fill="black"/>
<path opacity="0.25" d="M15.1857 9.11977L38.8746 22.4398C39.6035 22.9198 40.0894 23.3998 40.0894 23.9998C40.0894 23.3998 39.725 22.7998 38.8746 22.3198L15.1857 8.99977C13.485 8.03977 12.1487 8.87977 12.1487 10.7998V10.9198C12.1487 8.99977 13.485 8.15977 15.1857 9.11977Z" fill="white"/>
<path d="M157.925 1.05582C160.739 1.05582 163.027 3.31662 163.027 6.09545V42.095C163.027 44.8739 160.739 47.1347 157.925 47.1347H6.07469C3.26156 47.1347 0.972843 44.8739 0.972843 42.095V6.09545C0.972843 3.31662 3.26156 1.05582 6.07469 1.05582H157.925ZM157.925 0.0948792H6.07469C2.73324 0.0948792 4.29153e-05 2.79475 4.29153e-05 6.09545V42.095C4.29153e-05 45.3957 2.73324 48.0956 6.07469 48.0956H157.925C161.267 48.0956 164 45.3957 164 42.095V6.09545C164 2.79475 161.267 0.0948792 157.925 0.0948792Z" fill="black"/>
</g>
<defs>
<linearGradient id="paint0_linear_1_45" x1="26.4823" y1="10.4516" x2="6.34496" y2="30.8376" gradientUnits="userSpaceOnUse">
<stop stop-color="#00A0FF"/>
<stop offset="0.00657445" stop-color="#00A1FF"/>
<stop offset="0.2601" stop-color="#00BEFF"/>
<stop offset="0.5122" stop-color="#00D2FF"/>
<stop offset="0.7604" stop-color="#00DFFF"/>
<stop offset="1" stop-color="#00E3FF"/>
</linearGradient>
<linearGradient id="paint1_linear_1_45" x1="41.1024" y1="24.0028" x2="11.7077" y2="24.0028" gradientUnits="userSpaceOnUse">
<stop stop-color="#FFE000"/>
<stop offset="0.4087" stop-color="#FFBD00"/>
<stop offset="0.7754" stop-color="#FFA500"/>
<stop offset="1" stop-color="#FF9C00"/>
</linearGradient>
<linearGradient id="paint2_linear_1_45" x1="30.1604" y1="26.7556" x2="2.85248" y2="54.4007" gradientUnits="userSpaceOnUse">
<stop stop-color="#FF3A44"/>
<stop offset="1" stop-color="#C31162"/>
</linearGradient>
<linearGradient id="paint3_linear_1_45" x1="8.86504" y1="0.212202" x2="21.0592" y2="12.5568" gradientUnits="userSpaceOnUse">
<stop stop-color="#32A071"/>
<stop offset="0.0685" stop-color="#2DA771"/>
<stop offset="0.4762" stop-color="#15CF74"/>
<stop offset="0.8009" stop-color="#06E775"/>
<stop offset="1" stop-color="#00F076"/>
</linearGradient>
<clipPath id="clip0_1_45">
<rect width="164" height="48" rx="8" fill="white"/>
</clipPath>
</defs>
</svg>
